<svg width="187" height="148" viewBox="0 0 187 148" fill="none" xmlns="http://www.w3.org/2000/svg">
<path d="M161.524 74.4492C161.524 100.407 140.481 121.449 114.524 121.449C88.5666 121.449 67.5239 100.407 67.5239 74.4492C67.5239 48.4919 88.5666 27.4492 114.524 27.4492C140.481 27.4492 161.524 48.4919 161.524 74.4492Z" fill="#A3601D"/>
<path d="M152.191 74.4492C152.191 95.2518 135.327 112.116 114.524 112.116C93.7212 112.116 76.8572 95.2518 76.8572 74.4492C76.8572 53.6465 93.7212 36.7825 114.524 36.7825C135.327 36.7825 152.191 53.6465 152.191 74.4492Z" fill="#CE970F"/>
<path d="M133.078 19.8507L128.723 1.08525e-05L118.655 16.9453C123.667 17.3013 128.5 18.296 133.078 19.8507Z" fill="#CE970F"/>
<path d="M170.645 87.6912C169.378 93.0805 167.358 98.1752 164.698 102.863L186.789 103.05L170.645 87.6912Z" fill="#CE970F"/>
<path d="M82.1408 26.7315L65.7981 18.6901L72.1114 35.3875C75.1088 32.1355 78.4714 29.2261 82.1408 26.7315Z" fill="#CE970F"/>
<path d="M168.697 54.6392L182.569 37.5432L161.129 40.5019C164.268 44.8045 166.836 49.5499 168.697 54.6392Z" fill="#CE970F"/>
<path d="M125.554 131.05L138.205 147.191L140.045 126.163C135.518 128.4 130.657 130.06 125.554 131.05Z" fill="#CE970F"/>
<path d="M56.8572 74.4492C56.8572 73.6692 56.8852 72.8972 56.9159 72.1239L41.1772 79.5399L57.8199 84.9025C57.1986 81.5105 56.8572 78.0212 56.8572 74.4492Z" fill="#CE970F"/>
<path d="M77.6569 118.787L73.4009 136.729L89.1835 126.255C85.0369 124.224 81.1702 121.711 77.6569 118.787Z" fill="#CE970F"/>
<path d="M164.218 137.835H0.217687C0.217687 137.835 -2.44898 124.168 10.8844 121.502C10.8844 121.502 5.55102 106.835 14.2177 96.5018C22.8844 86.1684 36.4404 88.1684 36.4404 88.1684C36.4404 88.1684 46.2177 66.1684 69.2177 62.5018C92.2177 58.8351 112.884 75.8351 116.551 94.8351C116.551 94.8351 126.884 91.8351 134.884 96.8351C142.884 101.835 142.884 114.502 142.884 114.502C142.884 114.502 164.551 115.168 164.218 137.835Z" fill="white"/>
<path d="M10.2175 137.835C10.2175 137.835 9.8842 128.835 20.2175 125.168C20.2175 125.168 17.5509 115.835 25.5509 107.502C33.5509 99.1684 43.8842 99.9177 43.8842 99.9177C43.8842 99.9177 48.5509 80.5017 68.8842 78.1684C89.2175 75.8351 101.884 92.1684 105.884 103.168C105.884 103.168 120.884 98.5017 127.884 105.168C134.884 111.835 133.218 121.168 133.218 121.168C133.218 121.168 149.884 120.835 151.884 137.835H10.2175Z" fill="#FFF9F0"/>
</svg>
