<svg width="56" height="26" viewBox="0 0 56 26" fill="none" xmlns="http://www.w3.org/2000/svg">
<path d="M53.9431 25.0169H2.74028C2.74028 25.0169 -1.03073 22.1158 0.27472 17.7643C1.58017 13.4128 6.94688 13.2679 6.94688 13.2679C6.94688 13.2679 7.23712 3.11453 16.9553 0.793438C26.6735 -1.52722 31.8953 7.17578 31.8953 7.17578C31.8953 7.17578 37.4074 1.37393 43.0643 3.98483C48.7213 6.59573 47.7061 12.7087 47.7061 12.7087C47.7061 12.7087 52.6376 11.9624 55.2485 17.7643C57.0244 21.7107 53.9431 25.0169 53.9431 25.0169Z" fill="white"/>
<path d="M6.99027 24.7423C6.99027 24.7423 3.50907 18.9405 9.60117 16.7647C9.60117 16.7647 9.45626 7.77145 17.869 5.4508C26.2818 3.1297 31.2138 10.5273 31.2138 10.5273C31.2138 10.5273 35.8551 5.74061 41.512 8.35151C46.0476 10.445 45.4284 14.8709 45.4284 14.8709C45.4284 14.8709 49.1998 14.7339 51.2307 18.0702C53.2611 21.406 51.2307 24.7423 51.2307 24.7423H6.99027Z" fill="#FFF9F0"/>
</svg>
