<svg width="101" height="109" viewBox="0 0 101 109" fill="none" xmlns="http://www.w3.org/2000/svg">
<mask id="mask0_211_669" style="mask-type:luminance" maskUnits="userSpaceOnUse" x="7" y="0" width="92" height="91">
<path d="M7.47727 1.52588e-05H98.0503V90.5731H7.47727V1.52588e-05Z" fill="white"/>
</mask>
<g mask="url(#mask0_211_669)">
<path d="M53.8924 31.6417L53.8281 71.8134C53.8281 71.8134 55.8234 72.3761 57.4253 71.8134L55.6267 30.7387L53.8924 31.6417Z" fill="#D6D6D6"/>
<mask id="mask1_211_669" style="mask-type:luminance" maskUnits="userSpaceOnUse" x="53" y="30" width="5" height="43">
<path d="M53.8289 30.7387H57.4247V72.0632H53.8289V30.7387Z" fill="white"/>
</mask>
<g mask="url(#mask1_211_669)">
<g opacity="0.199997">
<path d="M57.4245 71.8138C55.8229 72.3753 53.8285 71.8138 53.8285 71.8138L53.8323 69.1962L53.8358 67.3467L53.8376 65.863L53.8396 65.2072L53.8921 31.6408L55.6255 30.7389L57.1344 65.2072L57.1636 65.863L57.2288 67.354L57.3101 69.1962L57.4245 71.8138Z" fill="#D6D6D6"/>
</g>
</g>
<path d="M57.4253 29.7315C57.4253 30.8311 56.6201 31.7223 55.6267 31.7223C54.6333 31.7223 53.8281 30.8311 53.8281 29.7315C53.8281 28.632 54.6333 27.7407 55.6267 27.7407C56.6201 27.7407 57.4253 28.632 57.4253 29.7315Z" fill="#D6D6D6"/>
<path d="M55.6267 31.7224C55.7014 31.6831 51.6069 31.7224 51.6069 31.7224L51.462 27.7408H55.6267V31.7224Z" fill="#D6D6D6"/>
<mask id="mask2_211_669" style="mask-type:luminance" maskUnits="userSpaceOnUse" x="51" y="27" width="7" height="5">
<path d="M51.4621 27.7408H57.4252V31.7224H51.4621V27.7408Z" fill="white"/>
</mask>
<g mask="url(#mask2_211_669)">
<g opacity="0.100006">
<path d="M55.6266 27.7405H51.4619L51.6068 31.7221C51.6068 31.7221 54.6281 31.6933 55.4315 31.71C55.4954 31.7178 55.5606 31.7221 55.6266 31.7221C56.6198 31.7221 57.4252 30.8309 57.4252 29.7313C57.4252 28.6318 56.6198 27.7405 55.6266 27.7405Z" fill="#D6D6D6"/>
</g>
</g>
<path d="M53.4055 29.7315C53.4055 30.8311 52.6003 31.7223 51.6069 31.7223C50.6135 31.7223 49.8083 30.8311 49.8083 29.7315C49.8083 28.632 50.6135 27.7407 51.6069 27.7407C52.6003 27.7407 53.4055 28.632 53.4055 29.7315Z" fill="#D6D6D6"/>
<path d="M51.677 29.7315L56.7116 25.117L73.2838 24.1817L51.677 29.7315Z" fill="#D6D6D6"/>
<path d="M51.6771 29.7315L53.1489 36.4004L45.6565 51.2119L51.6771 29.7315Z" fill="#D6D6D6"/>
<path d="M51.6069 29.7315L45.0798 27.7215L35.8928 13.8974L51.6069 29.7315Z" fill="#D6D6D6"/>
<mask id="mask3_211_669" style="mask-type:luminance" maskUnits="userSpaceOnUse" x="53" y="67" width="5" height="3">
<path d="M53.8326 67.3465H57.3106V69.196H53.8326V67.3465Z" fill="white"/>
</mask>
<g mask="url(#mask3_211_669)">
<g opacity="0.300003">
<path d="M57.3107 69.1961H53.8329L53.8363 67.3466C54.6879 67.3575 56.155 67.3702 57.2294 67.3539L57.3107 69.1961Z" fill="#D6D6D6"/>
</g>
</g>
<mask id="mask4_211_669" style="mask-type:luminance" maskUnits="userSpaceOnUse" x="53" y="65" width="5" height="1">
<path d="M53.838 65.2071H57.1638V65.8629H53.838V65.2071Z" fill="white"/>
</mask>
<g mask="url(#mask4_211_669)">
<g opacity="0.300003">
<path d="M57.1638 65.8629H53.838L53.8398 65.2071H57.1348L57.1638 65.8629Z" fill="#D6D6D6"/>
</g>
</g>
<mask id="mask5_211_669" style="mask-type:luminance" maskUnits="userSpaceOnUse" x="50" y="28" width="3" height="3">
<path d="M50.7751 28.7552H52.4325V30.6212H50.7751V28.7552Z" fill="white"/>
</mask>
<g mask="url(#mask5_211_669)">
<g opacity="0.199997">
<path d="M52.4292 29.6226C52.4702 30.1365 52.1336 30.5827 51.6779 30.6189C51.2219 30.6551 50.8194 30.2679 50.7786 29.7538C50.7377 29.2397 51.0743 28.7937 51.53 28.7575C51.9858 28.7212 52.3885 29.1087 52.4292 29.6226Z" fill="#D6D6D6"/>
</g>
</g>
<path d="M39.1588 64.4003C49.5601 64.4003 53.7094 72.0635 53.7094 72.0635C53.7094 72.0635 73.4031 65.3238 81.0297 79.0385H18.5868C18.5868 79.0385 23.6986 64.4003 39.1588 64.4003Z" fill="#D6D6D6"/>
</g>
<path d="M8.50381 104.16C7.38381 104.16 6.40248 103.915 5.55981 103.424C4.71715 102.933 4.06115 102.261 3.59181 101.408C3.12248 100.544 2.88781 99.552 2.88781 98.432C2.88781 97.568 3.03181 96.784 3.31981 96.08C3.60781 95.3653 4.00248 94.7573 4.50381 94.256C5.01581 93.744 5.60781 93.3547 6.27981 93.088C6.95181 92.8107 7.67715 92.672 8.45581 92.672C9.36248 92.672 10.1251 92.784 10.7438 93.008C11.3731 93.232 11.9385 93.504 12.4398 93.824C12.5145 93.8667 12.5838 93.936 12.6478 94.032C12.7225 94.128 12.7598 94.2507 12.7598 94.4C12.7598 94.5707 12.7011 94.7253 12.5838 94.864C12.4665 94.992 12.3011 95.056 12.0878 95.056C11.9705 95.056 11.8585 95.0293 11.7518 94.976C11.2825 94.6987 10.7971 94.48 10.2958 94.32C9.79448 94.16 9.23448 94.08 8.61581 94.08C7.81581 94.08 7.09048 94.2507 6.43981 94.592C5.79981 94.9227 5.28781 95.4133 4.90381 96.064C4.53048 96.704 4.34381 97.4933 4.34381 98.432C4.34381 99.2533 4.51448 99.9947 4.85581 100.656C5.19715 101.307 5.69315 101.824 6.34381 102.208C6.99448 102.592 7.77848 102.784 8.69581 102.784C9.26115 102.784 9.77848 102.72 10.2478 102.592C10.7171 102.453 11.1331 102.283 11.4958 102.08V99.184H8.85581C8.67448 99.184 8.51981 99.12 8.39181 98.992C8.26381 98.864 8.19981 98.7093 8.19981 98.528C8.19981 98.3467 8.26381 98.192 8.39181 98.064C8.51981 97.936 8.67448 97.872 8.85581 97.872H12.0078C12.2211 97.872 12.4025 97.9467 12.5518 98.096C12.7011 98.2453 12.7758 98.4267 12.7758 98.64V102.272C12.7758 102.496 12.7171 102.699 12.5998 102.88C12.4931 103.051 12.3491 103.179 12.1678 103.264C11.6451 103.531 11.0745 103.749 10.4558 103.92C9.84781 104.08 9.19715 104.16 8.50381 104.16ZM16.3892 104C16.1865 104 16.0159 103.931 15.8772 103.792C15.7385 103.653 15.6692 103.483 15.6692 103.28V93.568C15.6692 93.3653 15.7385 93.1947 15.8772 93.056C16.0159 92.9067 16.1865 92.832 16.3892 92.832H22.8052C22.9972 92.832 23.1572 92.9013 23.2852 93.04C23.4239 93.168 23.4932 93.328 23.4932 93.52C23.4932 93.712 23.4239 93.872 23.2852 94C23.1572 94.128 22.9972 94.192 22.8052 94.192H17.1252V97.728H22.2292C22.4212 97.728 22.5812 97.7973 22.7092 97.936C22.8479 98.064 22.9172 98.224 22.9172 98.416C22.9172 98.608 22.8479 98.768 22.7092 98.896C22.5812 99.024 22.4212 99.088 22.2292 99.088H17.1252V102.64H22.8052C22.9972 102.64 23.1572 102.709 23.2852 102.848C23.4239 102.976 23.4932 103.136 23.4932 103.328C23.4932 103.52 23.4239 103.68 23.2852 103.808C23.1572 103.936 22.9972 104 22.8052 104H16.3892ZM30.7069 104.16C29.5656 104.16 28.5789 103.915 27.7469 103.424C26.9149 102.933 26.2696 102.256 25.8109 101.392C25.3523 100.528 25.1123 99.536 25.0909 98.416C25.1123 97.296 25.3523 96.304 25.8109 95.44C26.2696 94.576 26.9149 93.8987 27.7469 93.408C28.5789 92.9173 29.5656 92.672 30.7069 92.672C31.8483 92.672 32.8349 92.9173 33.6669 93.408C34.4989 93.8987 35.1443 94.576 35.6029 95.44C36.0616 96.304 36.3016 97.296 36.3229 98.416C36.3016 99.536 36.0616 100.528 35.6029 101.392C35.1443 102.256 34.4989 102.933 33.6669 103.424C32.8349 103.915 31.8483 104.16 30.7069 104.16ZM30.7069 102.8C31.5923 102.8 32.3443 102.608 32.9629 102.224C33.5816 101.829 34.0509 101.301 34.3709 100.64C34.7016 99.9787 34.8669 99.2373 34.8669 98.416C34.8669 97.5947 34.7016 96.8533 34.3709 96.192C34.0509 95.5307 33.5816 95.008 32.9629 94.624C32.3443 94.2293 31.5923 94.032 30.7069 94.032C29.8216 94.032 29.0696 94.2293 28.4509 94.624C27.8323 95.008 27.3576 95.5307 27.0269 96.192C26.7069 96.8533 26.5469 97.5947 26.5469 98.416C26.5469 99.2373 26.7069 99.9787 27.0269 100.64C27.3576 101.301 27.8323 101.829 28.4509 102.224C29.0696 102.608 29.8216 102.8 30.7069 102.8ZM47.8316 104.16C46.7756 104.16 45.8209 103.931 44.9676 103.472C44.1249 103.003 43.4582 102.341 42.9676 101.488C42.4769 100.624 42.2316 99.6 42.2316 98.416C42.2316 97.2213 42.4769 96.1973 42.9676 95.344C43.4582 94.4907 44.1249 93.8347 44.9676 93.376C45.8209 92.9067 46.7756 92.672 47.8316 92.672C48.6209 92.672 49.3036 92.768 49.8796 92.96C50.4556 93.152 50.9889 93.3867 51.4796 93.664C51.5862 93.7173 51.6662 93.792 51.7196 93.888C51.7836 93.9733 51.8209 94.0907 51.8316 94.24C51.8422 94.4107 51.7889 94.56 51.6716 94.688C51.5542 94.816 51.3942 94.88 51.1916 94.88C51.0849 94.88 50.9889 94.8587 50.9036 94.816C50.4769 94.592 50.0396 94.4107 49.5916 94.272C49.1436 94.1333 48.6049 94.064 47.9756 94.064C47.0369 94.064 46.2476 94.256 45.6076 94.64C44.9676 95.024 44.4876 95.5467 44.1676 96.208C43.8476 96.8587 43.6876 97.5947 43.6876 98.416C43.6876 99.2373 43.8476 99.9787 44.1676 100.64C44.4876 101.291 44.9676 101.808 45.6076 102.192C46.2476 102.576 47.0369 102.768 47.9756 102.768C48.6049 102.768 49.1436 102.699 49.5916 102.56C50.0396 102.421 50.4769 102.24 50.9036 102.016C50.9889 101.973 51.0849 101.952 51.1916 101.952C51.3942 101.952 51.5542 102.016 51.6716 102.144C51.7889 102.272 51.8422 102.421 51.8316 102.592C51.8209 102.741 51.7836 102.864 51.7196 102.96C51.6662 103.045 51.5862 103.115 51.4796 103.168C50.9889 103.445 50.4556 103.68 49.8796 103.872C49.3036 104.064 48.6209 104.16 47.8316 104.16ZM54.4606 104.08C54.2579 104.08 54.0872 104.011 53.9486 103.872C53.8099 103.733 53.7406 103.563 53.7406 103.36V92.976C53.7406 92.7627 53.8099 92.5867 53.9486 92.448C54.0872 92.3093 54.2579 92.24 54.4606 92.24C54.6739 92.24 54.8499 92.3093 54.9886 92.448C55.1272 92.5867 55.1966 92.7627 55.1966 92.976V103.36C55.1966 103.563 55.1272 103.733 54.9886 103.872C54.8499 104.011 54.6739 104.08 54.4606 104.08ZM58.4129 94.176C58.1889 94.176 57.9969 94.096 57.8369 93.936C57.6769 93.776 57.5969 93.584 57.5969 93.36V93.296C57.5969 93.072 57.6769 92.88 57.8369 92.72C57.9969 92.56 58.1889 92.48 58.4129 92.48H58.5089C58.7329 92.48 58.9249 92.56 59.0849 92.72C59.2449 92.88 59.3249 93.072 59.3249 93.296V93.36C59.3249 93.584 59.2449 93.776 59.0849 93.936C58.9249 94.096 58.7329 94.176 58.5089 94.176H58.4129ZM58.4449 104.08C58.2423 104.08 58.0716 104.011 57.9329 103.872C57.7943 103.733 57.7249 103.563 57.7249 103.36V96.496C57.7249 96.2827 57.7943 96.1067 57.9329 95.968C58.0716 95.8293 58.2423 95.76 58.4449 95.76C58.6583 95.76 58.8343 95.8293 58.9729 95.968C59.1116 96.1067 59.1809 96.2827 59.1809 96.496V103.36C59.1809 103.563 59.1116 103.733 58.9729 103.872C58.8343 104.011 58.6583 104.08 58.4449 104.08ZM62.4293 104.08C62.2266 104.08 62.056 104.011 61.9173 103.872C61.7786 103.733 61.7093 103.563 61.7093 103.36V96.496C61.7093 96.2933 61.7786 96.1227 61.9173 95.984C62.056 95.8347 62.2266 95.76 62.4293 95.76C62.632 95.76 62.8026 95.8347 62.9413 95.984C63.0906 96.1227 63.1653 96.2933 63.1653 96.496V97.152C63.3146 96.9387 63.5013 96.72 63.7253 96.496C63.96 96.272 64.2533 96.08 64.6053 95.92C64.9573 95.76 65.384 95.68 65.8853 95.68C66.5253 95.68 67.048 95.8507 67.4533 96.192C67.8693 96.5333 68.1626 96.912 68.3333 97.328C68.4613 97.1253 68.6426 96.896 68.8773 96.64C69.112 96.384 69.4213 96.16 69.8053 95.968C70.2 95.776 70.6906 95.68 71.2773 95.68C71.9066 95.68 72.4186 95.84 72.8133 96.16C73.208 96.4693 73.496 96.8587 73.6773 97.328C73.8586 97.7973 73.9493 98.272 73.9493 98.752V103.36C73.9493 103.563 73.8746 103.733 73.7253 103.872C73.5866 104.011 73.416 104.08 73.2133 104.08C73.0106 104.08 72.84 104.011 72.7013 103.872C72.5626 103.733 72.4933 103.563 72.4933 103.36V99.04C72.4933 98.368 72.3706 97.8667 72.1253 97.536C71.8906 97.1947 71.4693 97.024 70.8613 97.024C70.456 97.024 70.1093 97.104 69.8213 97.264C69.5333 97.4133 69.288 97.6053 69.0853 97.84C68.8826 98.0747 68.7066 98.3147 68.5573 98.56V103.36C68.5573 103.563 68.4826 103.733 68.3333 103.872C68.1946 104.011 68.024 104.08 67.8213 104.08C67.6186 104.08 67.448 104.011 67.3093 103.872C67.1706 103.733 67.1013 103.563 67.1013 103.36V99.04C67.1013 98.368 66.9786 97.8667 66.7333 97.536C66.4986 97.1947 66.0773 97.024 65.4693 97.024C65.064 97.024 64.7173 97.104 64.4293 97.264C64.1413 97.4133 63.896 97.6053 63.6933 97.84C63.4906 98.0747 63.3146 98.3147 63.1653 98.56V103.36C63.1653 103.563 63.0906 103.733 62.9413 103.872C62.8026 104.011 62.632 104.08 62.4293 104.08ZM78.4768 104.16C78.0181 104.16 77.5861 104.064 77.1808 103.872C76.7861 103.68 76.4661 103.408 76.2208 103.056C75.9861 102.693 75.8688 102.261 75.8688 101.76C75.8688 101.003 76.1675 100.384 76.7648 99.904C77.3728 99.4133 78.3008 99.168 79.5488 99.168H81.4848V99.04C81.4848 98.3253 81.3088 97.8187 80.9568 97.52C80.6048 97.2107 80.0661 97.056 79.3408 97.056C78.8928 97.056 78.4981 97.0987 78.1568 97.184C77.8261 97.2587 77.5115 97.344 77.2128 97.44C77.1275 97.4613 77.0581 97.472 77.0048 97.472C76.8448 97.472 76.7061 97.4133 76.5888 97.296C76.4715 97.1787 76.4128 97.0347 76.4128 96.864C76.4128 96.576 76.5515 96.3733 76.8288 96.256C77.2021 96.096 77.6128 95.9627 78.0608 95.856C78.5195 95.7387 79.0315 95.68 79.5968 95.68C80.3755 95.68 81.0101 95.8347 81.5008 96.144C81.9915 96.4533 82.3541 96.848 82.5888 97.328C82.8235 97.808 82.9408 98.3093 82.9408 98.832V103.36C82.9408 103.563 82.8661 103.733 82.7168 103.872C82.5781 104.011 82.4075 104.08 82.2048 104.08C82.0021 104.08 81.8315 104.011 81.6928 103.872C81.5541 103.733 81.4848 103.563 81.4848 103.36V102.944C81.1968 103.243 80.8128 103.52 80.3328 103.776C79.8528 104.032 79.2341 104.16 78.4768 104.16ZM79.0208 102.88C79.5221 102.88 79.9915 102.757 80.4288 102.512C80.8661 102.267 81.2181 101.989 81.4848 101.68V100.336H79.7408C78.9941 100.336 78.4021 100.432 77.9648 100.624C77.5381 100.816 77.3248 101.141 77.3248 101.6C77.3248 101.941 77.4421 102.24 77.6768 102.496C77.9221 102.752 78.3701 102.88 79.0208 102.88ZM88.0097 104.16C87.8177 104.16 87.5884 104.139 87.3217 104.096C87.0657 104.064 86.8097 103.984 86.5537 103.856C86.3084 103.717 86.1004 103.504 85.9297 103.216C85.759 102.928 85.6737 102.539 85.6737 102.048V97.088H84.5377C84.335 97.088 84.2337 96.9867 84.2337 96.784C84.2337 96.6773 84.2817 96.5867 84.3777 96.512L86.5537 94.384C86.575 94.3627 86.607 94.336 86.6497 94.304C86.703 94.2613 86.7617 94.24 86.8257 94.24C86.911 94.24 86.9804 94.272 87.0337 94.336C87.0977 94.4 87.1297 94.4747 87.1297 94.56V95.84H88.9377C89.119 95.84 89.2684 95.8987 89.3857 96.016C89.503 96.1333 89.5617 96.2827 89.5617 96.464C89.5617 96.6347 89.503 96.784 89.3857 96.912C89.2684 97.0293 89.119 97.088 88.9377 97.088H87.1297V101.92C87.1297 102.229 87.1884 102.453 87.3057 102.592C87.423 102.731 87.5617 102.816 87.7217 102.848C87.8924 102.869 88.0417 102.88 88.1697 102.88C88.4257 102.88 88.6124 102.859 88.7297 102.816C88.8577 102.763 88.991 102.736 89.1297 102.736C89.279 102.736 89.4124 102.789 89.5297 102.896C89.647 103.003 89.7057 103.141 89.7057 103.312C89.7057 103.557 89.583 103.744 89.3377 103.872C89.1457 103.957 88.9377 104.027 88.7137 104.08C88.5004 104.133 88.2657 104.16 88.0097 104.16ZM94.8417 104.16C93.5404 104.16 92.5217 103.792 91.7857 103.056C91.0604 102.309 90.6977 101.264 90.6977 99.92C90.6977 99.1947 90.831 98.512 91.0977 97.872C91.3644 97.2213 91.7804 96.6933 92.3457 96.288C92.911 95.8827 93.6364 95.68 94.5217 95.68C95.343 95.68 96.0364 95.872 96.6017 96.256C97.167 96.6293 97.5937 97.12 97.8817 97.728C98.1804 98.336 98.3297 98.9973 98.3297 99.712C98.3297 99.9147 98.2604 100.085 98.1217 100.224C97.9937 100.363 97.8177 100.432 97.5937 100.432H92.1697C92.255 101.147 92.527 101.723 92.9857 102.16C93.4444 102.587 94.1057 102.8 94.9697 102.8C95.4497 102.8 95.855 102.757 96.1857 102.672C96.5164 102.576 96.831 102.453 97.1297 102.304C97.215 102.261 97.311 102.24 97.4177 102.24C97.5884 102.24 97.7377 102.299 97.8657 102.416C97.9937 102.533 98.0577 102.683 98.0577 102.864C98.0577 102.992 98.015 103.109 97.9297 103.216C97.855 103.312 97.759 103.392 97.6417 103.456C97.2897 103.659 96.9057 103.829 96.4897 103.968C96.0844 104.096 95.535 104.16 94.8417 104.16ZM92.1697 99.248H96.8897C96.8577 98.6933 96.7137 98.2453 96.4577 97.904C96.2124 97.5627 95.9137 97.312 95.5617 97.152C95.2097 96.992 94.863 96.912 94.5217 96.912C94.1804 96.912 93.8337 96.992 93.4817 97.152C93.1297 97.312 92.831 97.5627 92.5857 97.904C92.3404 98.2453 92.2017 98.6933 92.1697 99.248Z" fill="#D6D6D6"/>
</svg>
