<svg width="163" height="136" viewBox="0 0 163 136" fill="none" xmlns="http://www.w3.org/2000/svg">
<path d="M113.09 84.0827C91.8486 84.0827 74.6286 66.8627 74.6286 45.6201C74.6286 30.9667 82.8246 18.2294 94.882 11.7361C92.0686 11.2814 89.1846 11.0347 86.242 11.0347C56.602 11.0347 32.574 35.0627 32.574 64.7027C32.574 94.3427 56.602 118.371 86.242 118.371C112.727 118.371 134.715 99.1801 139.099 73.9494C132.253 80.2387 123.121 84.0827 113.09 84.0827Z" fill="#CE970F"/>
<mask id="mask0_212_97" style="mask-type:luminance" maskUnits="userSpaceOnUse" x="32" y="43" width="108" height="76">
<path d="M32.5741 43.8839H139.1V118.371H32.5741V43.8839Z" fill="white"/>
</mask>
<g mask="url(#mask0_212_97)">
<g opacity="0.5">
<path d="M82.366 96.6053C49.3446 92.2387 37.4793 66.284 36.7633 43.884C34.066 50.2853 32.574 57.32 32.574 64.7027C32.574 94.3427 56.602 118.371 86.242 118.371C112.727 118.371 134.715 99.18 139.099 73.9493C139.099 73.9493 124.623 102.193 82.366 96.6053Z" fill="#A3601D"/>
</g>
</g>
<path d="M151.651 28.956L154.738 36.312L162.182 39.184L156.139 44.3933L155.708 52.36L148.887 48.2227L141.178 50.2747L143.004 42.5093L138.67 35.8107L146.62 35.148L151.651 28.956Z" fill="#A3601D"/>
<path d="M151.007 33.447L152.854 37.8484L157.308 39.567L153.692 42.683L153.435 47.4497L149.354 44.975L144.74 46.203L145.834 41.5564L143.24 37.5484L147.996 37.1524L151.007 33.447Z" fill="#CE970F"/>
<path d="M133.45 111.737L140.271 115.876L147.98 113.825L146.152 121.592L150.484 128.291L142.534 128.952L137.502 135.143L134.416 127.785L126.974 124.912L133.018 119.704L133.45 111.737Z" fill="#A3601D"/>
<path d="M135.567 115.75L139.648 118.226L144.262 116.999L143.167 121.646L145.759 125.654L141.002 126.05L137.991 129.754L136.146 125.351L131.692 123.633L135.308 120.517L135.567 115.75Z" fill="#CE970F"/>
<path d="M10.6733 25.1946L15.6173 31.456L23.5573 32.2306L19.1293 38.868L20.8467 46.6586L13.1667 44.4986L6.288 48.54L5.96933 40.568L0 35.2733L7.48267 32.5066L10.6733 25.1946Z" fill="#A3601D"/>
<path d="M11.2546 29.6942L14.2119 33.4409L18.9639 33.9036L16.3146 37.8756L17.3413 42.5369L12.7466 41.2436L8.63059 43.6622L8.43992 38.8929L4.86792 35.7249L9.34525 34.0702L11.2546 29.6942Z" fill="#CE970F"/>
<path d="M127.387 19.383C127.387 20.7004 126.319 21.7684 125.002 21.7684C123.685 21.7684 122.617 20.7004 122.617 19.383C122.617 18.0657 123.685 16.9977 125.002 16.9977C126.319 16.9977 127.387 18.0657 127.387 19.383Z" fill="#CE970F"/>
<path d="M56.976 132.757C56.976 134.074 55.908 135.142 54.5907 135.142C53.2733 135.142 52.2053 134.074 52.2053 132.757C52.2053 131.44 53.2733 130.372 54.5907 130.372C55.908 130.372 56.976 131.44 56.976 132.757Z" fill="#CE970F"/>
<path d="M159.693 92.5262C159.693 93.8436 158.625 94.9116 157.308 94.9116C155.99 94.9116 154.922 93.8436 154.922 92.5262C154.922 91.2089 155.99 90.1409 157.308 90.1409C158.625 90.1409 159.693 91.2089 159.693 92.5262Z" fill="#CE970F"/>
<path d="M14.3012 75.4571C14.3012 76.7744 13.2332 77.8424 11.9159 77.8424C10.5985 77.8424 9.53052 76.7744 9.53052 75.4571C9.53052 74.1397 10.5985 73.0717 11.9159 73.0717C13.2332 73.0717 14.3012 74.1397 14.3012 75.4571Z" fill="#CE970F"/>
<path d="M54.5906 2.3853C54.5906 3.70263 53.5226 4.77063 52.2053 4.77063C50.8879 4.77063 49.8199 3.70263 49.8199 2.3853C49.8199 1.06796 50.8879 -3.65911e-05 52.2053 -3.65911e-05C53.5226 -3.65911e-05 54.5906 1.06796 54.5906 2.3853Z" fill="#CE970F"/>
</svg>
