<svg width="93" height="151" viewBox="0 0 93 151" fill="none" xmlns="http://www.w3.org/2000/svg">
<path d="M16.6825 -7.60293e-06C16.6825 -7.60293e-06 -13.5401 43.1107 16.6825 43.1107C46.9052 43.1107 16.6825 -7.60293e-06 16.6825 -7.60293e-06Z" fill="#8EB29E"/>
<path d="M16.6824 9.17876C16.6824 9.17876 -2.54022 36.5988 16.6824 36.5988C35.9051 36.5988 16.6824 9.17876 16.6824 9.17876Z" fill="#728E78"/>
<mask id="mask0_212_63" style="mask-type:luminance" maskUnits="userSpaceOnUse" x="6" y="18" width="8" height="20">
<path d="M6.28906 18.0938H13.4317V37.6445H6.28906V18.0938Z" fill="white"/>
</mask>
<g mask="url(#mask0_212_63)">
<g opacity="0.5">
<path d="M8.9603 19.5555C7.17364 21.6581 5.79364 29.3888 6.4603 33.5555C7.12697 37.7221 10.9603 38.6421 12.7936 36.5981C14.627 34.5555 11.831 30.7315 12.7936 26.5555C14.627 18.6035 11.7936 16.2221 8.9603 19.5555Z" fill="white"/>
</g>
</g>
<path d="M70.3166 16.0887C70.3166 16.0887 40.0939 59.1993 70.3166 59.1993C100.539 59.1993 70.3166 16.0887 70.3166 16.0887Z" fill="#8EB29E"/>
<path d="M70.3166 25.2676C70.3166 25.2676 51.0939 52.6876 70.3166 52.6876C89.5393 52.6876 70.3166 25.2676 70.3166 25.2676Z" fill="#728E78"/>
<mask id="mask1_212_63" style="mask-type:luminance" maskUnits="userSpaceOnUse" x="59" y="34" width="9" height="20">
<path d="M59.9238 34.1818H67.0665V53.7325H59.9238V34.1818Z" fill="white"/>
</mask>
<g mask="url(#mask1_212_63)">
<g opacity="0.5">
<path d="M62.5945 35.6441C60.8078 37.7468 59.4278 45.4775 60.0945 49.6441C60.7611 53.8108 64.5945 54.7308 66.4278 52.6868C68.2611 50.6441 65.4651 46.8201 66.4278 42.6441C68.2611 34.6921 65.4278 32.3108 62.5945 35.6441Z" fill="white"/>
</g>
</g>
<path d="M39.913 58.1197C39.913 58.1197 9.69034 101.23 39.913 101.23C70.1357 101.23 39.913 58.1197 39.913 58.1197Z" fill="#8EB29E"/>
<path d="M39.913 67.2986C39.913 67.2986 20.6904 94.7186 39.913 94.7186C59.1357 94.7186 39.913 67.2986 39.913 67.2986Z" fill="#728E78"/>
<mask id="mask2_212_63" style="mask-type:luminance" maskUnits="userSpaceOnUse" x="29" y="76" width="8" height="20">
<path d="M29.5197 76.2139H36.6623V95.7645H29.5197V76.2139Z" fill="white"/>
</mask>
<g mask="url(#mask2_212_63)">
<g opacity="0.5">
<path d="M32.1909 77.6754C30.4042 79.7781 29.0242 87.5087 29.6909 91.6754C30.3576 95.8421 34.1909 96.7621 36.0242 94.7181C37.8576 92.6754 35.0616 88.8514 36.0242 84.6754C37.8576 76.7234 35.0242 74.3421 32.1909 77.6754Z" fill="white"/>
</g>
</g>
<path d="M78.8598 80.8888C78.8598 80.8888 48.6371 123.999 78.8598 123.999C109.082 123.999 78.8598 80.8888 78.8598 80.8888Z" fill="#8EB29E"/>
<path d="M78.8598 90.0677C78.8598 90.0677 59.6371 117.488 78.8598 117.488C98.0825 117.488 78.8598 90.0677 78.8598 90.0677Z" fill="#728E78"/>
<mask id="mask3_212_63" style="mask-type:luminance" maskUnits="userSpaceOnUse" x="68" y="98" width="8" height="21">
<path d="M68.4663 98.9832H75.609V118.532H68.4663V98.9832Z" fill="white"/>
</mask>
<g mask="url(#mask3_212_63)">
<g opacity="0.5">
<path d="M71.1375 100.444C69.3509 102.547 67.9709 110.278 68.6375 114.444C69.3042 118.611 73.1375 119.531 74.9709 117.487C76.8042 115.444 74.0082 111.62 74.9709 107.444C76.8042 99.4923 73.9709 97.111 71.1375 100.444Z" fill="white"/>
</g>
</g>
<path d="M13.4323 107.266C13.4323 107.266 -16.7904 150.377 13.4323 150.377C43.655 150.377 13.4323 107.266 13.4323 107.266Z" fill="#8EB29E"/>
<path d="M13.4322 116.445C13.4322 116.445 -5.79047 143.865 13.4322 143.865C32.6549 143.865 13.4322 116.445 13.4322 116.445Z" fill="#728E78"/>
<mask id="mask4_212_63" style="mask-type:luminance" maskUnits="userSpaceOnUse" x="3" y="125" width="8" height="20">
<path d="M3.03967 125.359H10.1823V144.91H3.03967V125.359Z" fill="white"/>
</mask>
<g mask="url(#mask4_212_63)">
<g opacity="0.5">
<path d="M5.70994 126.822C3.92327 128.924 2.54327 136.655 3.20994 140.822C3.8766 144.988 7.70994 145.908 9.54327 143.866C11.3766 141.822 8.5806 137.998 9.54327 133.822C11.3766 125.87 8.54327 123.488 5.70994 126.822Z" fill="white"/>
</g>
</g>
</svg>
