<svg width="119" height="126" viewBox="0 0 119 126" fill="none" xmlns="http://www.w3.org/2000/svg">
<path d="M26.188 29.084L22.208 22.2173L26.188 15.3493L30.168 22.2173L26.188 29.084Z" stroke="#8EB29E" stroke-width="2.66667" stroke-miterlimit="10"/>
<path d="M26.188 15.3493V-2.83311e-05" stroke="#8EB29E" stroke-width="2.66667" stroke-miterlimit="10"/>
<path d="M19.5229 12.0062L32.8536 3.87556" stroke="#8EB29E" stroke-width="2.66667" stroke-miterlimit="10"/>
<path d="M32.8531 12.0062L19.5225 3.87556" stroke="#8EB29E" stroke-width="2.66667" stroke-miterlimit="10"/>
<path d="M26.188 29.084L30.168 35.9507L26.188 42.8187L22.208 35.9507L26.188 29.084Z" stroke="#8EB29E" stroke-width="2.66667" stroke-miterlimit="10"/>
<path d="M26.188 42.8186V58.168" stroke="#8EB29E" stroke-width="2.66667" stroke-miterlimit="10"/>
<path d="M32.8531 46.1617L19.5225 54.2924" stroke="#8EB29E" stroke-width="2.66667" stroke-miterlimit="10"/>
<path d="M19.5229 46.1617L32.8536 54.2924" stroke="#8EB29E" stroke-width="2.66667" stroke-miterlimit="10"/>
<path d="M26.1881 29.084L18.2508 29.0973L14.2935 22.2173L22.2308 22.204L26.1881 29.084Z" stroke="#8EB29E" stroke-width="2.66667" stroke-miterlimit="10"/>
<path d="M14.2933 22.2167L1 14.542" stroke="#8EB29E" stroke-width="2.66667" stroke-miterlimit="10"/>
<path d="M8.06545 26.3172L7.68945 10.7079" stroke="#8EB29E" stroke-width="2.66667" stroke-miterlimit="10"/>
<path d="M14.7308 14.7729L1.02417 22.2516" stroke="#8EB29E" stroke-width="2.66667" stroke-miterlimit="10"/>
<path d="M26.188 29.084L34.1253 29.0707L38.0827 35.9507L30.1453 35.964L26.188 29.084Z" stroke="#8EB29E" stroke-width="2.66667" stroke-miterlimit="10"/>
<path d="M38.0825 35.9513L51.3759 43.626" stroke="#8EB29E" stroke-width="2.66667" stroke-miterlimit="10"/>
<path d="M44.3101 31.8506L44.6861 47.46" stroke="#8EB29E" stroke-width="2.66667" stroke-miterlimit="10"/>
<path d="M37.645 43.395L51.3517 35.9164" stroke="#8EB29E" stroke-width="2.66667" stroke-miterlimit="10"/>
<path d="M26.188 29.084L30.1453 22.204L38.0827 22.2173L34.1253 29.0973L26.188 29.084Z" stroke="#8EB29E" stroke-width="2.66667" stroke-miterlimit="10"/>
<path d="M38.0825 22.2167L51.3759 14.542" stroke="#8EB29E" stroke-width="2.66667" stroke-miterlimit="10"/>
<path d="M37.645 14.7729L51.3517 22.2516" stroke="#8EB29E" stroke-width="2.66667" stroke-miterlimit="10"/>
<path d="M44.3101 26.3172L44.6861 10.7079" stroke="#8EB29E" stroke-width="2.66667" stroke-miterlimit="10"/>
<path d="M26.1881 29.084L22.2308 35.964L14.2935 35.9507L18.2508 29.0707L26.1881 29.084Z" stroke="#8EB29E" stroke-width="2.66667" stroke-miterlimit="10"/>
<path d="M14.2933 35.9513L1 43.626" stroke="#8EB29E" stroke-width="2.66667" stroke-miterlimit="10"/>
<path d="M14.7308 43.395L1.02417 35.9164" stroke="#8EB29E" stroke-width="2.66667" stroke-miterlimit="10"/>
<path d="M8.06545 31.8506L7.68945 47.46" stroke="#8EB29E" stroke-width="2.66667" stroke-miterlimit="10"/>
<path d="M89.788 51.4492L87.9453 43.7292L93.728 38.2919L95.5706 46.0119L89.788 51.4492Z" stroke="#8EB29E" stroke-width="2.66667" stroke-miterlimit="10"/>
<path d="M93.7275 38.2916L98.1302 23.5862" stroke="#8EB29E" stroke-width="2.66667" stroke-miterlimit="10"/>
<path d="M88.3013 33.1772L103.404 29.2119" stroke="#8EB29E" stroke-width="2.66667" stroke-miterlimit="10"/>
<path d="M101.071 37.0006L90.6328 25.3886" stroke="#8EB29E" stroke-width="2.66667" stroke-miterlimit="10"/>
<path d="M89.788 51.4492L91.6307 59.1692L85.848 64.6066L84.0054 56.8866L89.788 51.4492Z" stroke="#8EB29E" stroke-width="2.66667" stroke-miterlimit="10"/>
<path d="M85.8485 64.6068L81.4458 79.3121" stroke="#8EB29E" stroke-width="2.66667" stroke-miterlimit="10"/>
<path d="M91.275 69.7211L76.1724 73.6864" stroke="#8EB29E" stroke-width="2.66667" stroke-miterlimit="10"/>
<path d="M78.5046 65.8977L88.9433 77.5097" stroke="#8EB29E" stroke-width="2.66667" stroke-miterlimit="10"/>
<path d="M89.7881 51.4492L82.1801 49.1852L80.3628 41.4586L87.9708 43.7226L89.7881 51.4492Z" stroke="#8EB29E" stroke-width="2.66667" stroke-miterlimit="10"/>
<path d="M80.3629 41.4588L69.8296 30.2935" stroke="#8EB29E" stroke-width="2.66667" stroke-miterlimit="10"/>
<path d="M73.2207 43.6008L77.338 28.5394" stroke="#8EB29E" stroke-width="2.66667" stroke-miterlimit="10"/>
<path d="M82.9171 34.4532L67.6411 37.6865" stroke="#8EB29E" stroke-width="2.66667" stroke-miterlimit="10"/>
<path d="M89.7881 51.4492L97.3961 53.7132L99.2134 61.4398L91.6054 59.1758L89.7881 51.4492Z" stroke="#8EB29E" stroke-width="2.66667" stroke-miterlimit="10"/>
<path d="M99.2134 61.4396L109.747 72.6049" stroke="#8EB29E" stroke-width="2.66667" stroke-miterlimit="10"/>
<path d="M106.356 59.2974L102.238 74.3588" stroke="#8EB29E" stroke-width="2.66667" stroke-miterlimit="10"/>
<path d="M96.6592 68.4451L111.935 65.2117" stroke="#8EB29E" stroke-width="2.66667" stroke-miterlimit="10"/>
<path d="M89.7881 51.4492L95.5521 45.9932L103.152 48.2825L97.3881 53.7385L89.7881 51.4492Z" stroke="#8EB29E" stroke-width="2.66667" stroke-miterlimit="10"/>
<path d="M103.152 48.282L118.088 44.742" stroke="#8EB29E" stroke-width="2.66667" stroke-miterlimit="10"/>
<path d="M104.869 41.0256L115.854 52.1216" stroke="#8EB29E" stroke-width="2.66667" stroke-miterlimit="10"/>
<path d="M107.942 53.9966L112.78 39.1513" stroke="#8EB29E" stroke-width="2.66667" stroke-miterlimit="10"/>
<path d="M89.7878 51.4493L84.0238 56.9053L76.4238 54.6159L82.1878 49.1599L89.7878 51.4493Z" stroke="#8EB29E" stroke-width="2.66667" stroke-miterlimit="10"/>
<path d="M76.4238 54.6164L61.4878 58.1564" stroke="#8EB29E" stroke-width="2.66667" stroke-miterlimit="10"/>
<path d="M74.7075 61.8728L63.7222 50.7768" stroke="#8EB29E" stroke-width="2.66667" stroke-miterlimit="10"/>
<path d="M71.6337 48.9017L66.7964 63.7471" stroke="#8EB29E" stroke-width="2.66667" stroke-miterlimit="10"/>
<path d="M47.6193 98.2104L46.7393 90.3224L53.1459 85.6371L54.0259 93.5251L47.6193 98.2104Z" stroke="#8EB29E" stroke-width="2.66667" stroke-miterlimit="10"/>
<path d="M53.1462 85.6368L59.3236 71.5848" stroke="#8EB29E" stroke-width="2.66667" stroke-miterlimit="10"/>
<path d="M48.3896 79.8943L63.8643 77.8156" stroke="#8EB29E" stroke-width="2.66667" stroke-miterlimit="10"/>
<path d="M60.5931 85.2582L51.6611 72.4516" stroke="#8EB29E" stroke-width="2.66667" stroke-miterlimit="10"/>
<path d="M47.6196 98.2104L48.4996 106.098L42.0929 110.784L41.2129 102.896L47.6196 98.2104Z" stroke="#8EB29E" stroke-width="2.66667" stroke-miterlimit="10"/>
<path d="M42.0929 110.784L35.9155 124.836" stroke="#8EB29E" stroke-width="2.66667" stroke-miterlimit="10"/>
<path d="M46.8492 116.527L31.3745 118.605" stroke="#8EB29E" stroke-width="2.66667" stroke-miterlimit="10"/>
<path d="M34.6455 111.163L43.5775 123.969" stroke="#8EB29E" stroke-width="2.66667" stroke-miterlimit="10"/>
<path d="M47.6195 98.2104L40.3475 95.0291L39.4941 87.1371L46.7648 90.3197L47.6195 98.2104Z" stroke="#8EB29E" stroke-width="2.66667" stroke-miterlimit="10"/>
<path d="M39.4937 87.1373L30.4124 74.7627" stroke="#8EB29E" stroke-width="2.66667" stroke-miterlimit="10"/>
<path d="M32.1426 88.3852L38.0799 73.9439" stroke="#8EB29E" stroke-width="2.66667" stroke-miterlimit="10"/>
<path d="M42.8894 80.4988L27.332 81.8308" stroke="#8EB29E" stroke-width="2.66667" stroke-miterlimit="10"/>
<path d="M47.6196 98.2104L54.8916 101.392L55.745 109.284L48.4743 106.101L47.6196 98.2104Z" stroke="#8EB29E" stroke-width="2.66667" stroke-miterlimit="10"/>
<path d="M55.7451 109.283L64.8265 121.658" stroke="#8EB29E" stroke-width="2.66667" stroke-miterlimit="10"/>
<path d="M63.0965 108.036L57.1592 122.477" stroke="#8EB29E" stroke-width="2.66667" stroke-miterlimit="10"/>
<path d="M52.3496 115.922L67.9069 114.59" stroke="#8EB29E" stroke-width="2.66667" stroke-miterlimit="10"/>
<path d="M47.6196 98.2104L54.0116 93.5037L61.2716 96.7104L54.881 101.417L47.6196 98.2104Z" stroke="#8EB29E" stroke-width="2.66667" stroke-miterlimit="10"/>
<path d="M61.272 96.7098L76.5293 95.0325" stroke="#8EB29E" stroke-width="2.66667" stroke-miterlimit="10"/>
<path d="M63.8667 89.7195L73.4054 102.082" stroke="#8EB29E" stroke-width="2.66667" stroke-miterlimit="10"/>
<path d="M65.3232 102.97L71.9486 88.8313" stroke="#8EB29E" stroke-width="2.66667" stroke-miterlimit="10"/>
<path d="M47.6193 98.2104L41.2273 102.917L33.9673 99.7104L40.358 95.0037L47.6193 98.2104Z" stroke="#8EB29E" stroke-width="2.66667" stroke-miterlimit="10"/>
<path d="M33.9668 99.7109L18.7095 101.388" stroke="#8EB29E" stroke-width="2.66667" stroke-miterlimit="10"/>
<path d="M31.3722 106.701L21.8335 94.3386" stroke="#8EB29E" stroke-width="2.66667" stroke-miterlimit="10"/>
<path d="M29.9159 93.4509L23.2905 107.59" stroke="#8EB29E" stroke-width="2.66667" stroke-miterlimit="10"/>
</svg>
