<svg width="40" height="40" viewBox="0 0 40 40" fill="none" xmlns="http://www.w3.org/2000/svg">
<path d="M33.0594 20.2319C33.0594 27.286 27.2789 33.0044 20.1483 33.0044C13.0178 33.0044 7.2373 27.286 7.2373 20.2319C7.2373 13.1779 13.0178 7.45944 20.1483 7.45944C27.2789 7.45944 33.0594 13.1779 33.0594 20.2319Z" fill="#A3601D"/>
<path d="M30.4957 20.2319C30.4957 25.8852 25.8631 30.468 20.1485 30.468C14.434 30.468 9.80139 25.8852 9.80139 20.2319C9.80139 14.5787 14.434 9.99583 20.1485 9.99583C25.8631 9.99583 30.4957 14.5787 30.4957 20.2319Z" fill="#CE970F"/>
<path d="M25.2452 5.39452L24.0489 3.8147e-06L21.2832 4.60498C22.66 4.70173 23.9877 4.97203 25.2452 5.39452Z" fill="#CE970F"/>
<path d="M35.5652 23.8305C35.2173 25.2951 34.6624 26.6796 33.9316 27.9536L40 28.0043L35.5652 23.8305Z" fill="#CE970F"/>
<path d="M11.2531 7.26442L6.76367 5.07914L8.49796 9.61673C9.32134 8.73298 10.2451 7.94236 11.2531 7.26442Z" fill="#CE970F"/>
<path d="M35.0302 14.8485L38.8409 10.2026L32.9513 11.0066C33.8135 12.1759 34.5189 13.4654 35.0302 14.8485Z" fill="#CE970F"/>
<path d="M23.1788 35.6135L26.654 40L27.1595 34.2855C25.916 34.8935 24.5806 35.3447 23.1788 35.6135Z" fill="#CE970F"/>
<path d="M4.30734 20.2319C4.30734 20.02 4.31503 19.8102 4.32346 19.6L0 21.6154L4.57179 23.0727C4.40111 22.1509 4.30734 21.2027 4.30734 20.2319Z" fill="#CE970F"/>
<path d="M10.0211 32.2809L8.85193 37.1569L13.1875 34.3103C12.0484 33.7585 10.9862 33.0755 10.0211 32.2809Z" fill="#CE970F"/>
</svg>
