<svg width="63" height="63" viewBox="0 0 63 63" fill="none" xmlns="http://www.w3.org/2000/svg">
<path d="M10.1574 24.3596C10.1574 24.3596 16.0912 16.2989 30.0858 17.1942C44.0804 18.0899 51.8057 23.6878 57.739 21.1131C62.7475 18.9396 59.9784 13.2758 55.3882 13.1638C55.3882 13.1638 60.4263 12.8279 62.3297 17.642C64.2327 22.4562 59.3562 26.2631 53.2858 25.9272C47.2155 25.5913 37.4885 19.7019 27.1751 19.5532C16.8612 19.4044 10.1574 24.3596 10.1574 24.3596Z" fill="#D6D6D6"/>
<path d="M2.99218 22.5781C2.99218 22.5781 10.1577 13.1589 23.9283 9.72363C32.1153 7.68161 45.0883 9.94092 49.7905 7.18619C54.4927 4.43094 51.3576 0.40057 47.6631 1.18435C43.9687 1.96813 44.8644 4.64823 44.8644 4.64823C44.8644 4.64823 43.7447 1.52026 47.4392 0.288603C51.1336 -0.942543 55.3455 1.88071 53.8623 6.55834C52.4773 10.9246 47.5512 12.2682 37.363 11.4277C22.0049 10.1603 9.48586 15.5148 2.99218 22.5781Z" fill="#D6D6D6"/>
<path d="M-2.28882e-05 31.0191C-2.28882e-05 31.0191 4.36574 34.1501 12.8002 34.3761C21.2352 34.6021 33.1167 28.4571 38.3879 29.8406C43.6591 31.2246 41.728 35.9513 37.9594 36.1937C34.1903 36.436 34.3294 33.6138 34.3294 33.6138C34.3294 33.6138 34.0952 36.9279 37.9855 37.1165C41.8753 37.3057 45.1689 33.4502 42.4781 29.3462C39.9662 25.5158 34.287 26.41 25.288 29.9781C16.2886 33.5468 8.27186 34.3981 -2.28882e-05 31.0191Z" fill="#D6D6D6"/>
<path d="M31.79 2.77475C31.79 3.3029 31.3621 3.73083 30.8339 3.73083C30.3063 3.73083 29.8784 3.3029 29.8784 2.77475C29.8784 2.24661 30.3063 1.81867 30.8339 1.81867C31.3621 1.81867 31.79 2.24661 31.79 2.77475Z" fill="#D6D6D6"/>
<path d="M52.6479 16.266C52.6479 16.7942 52.2199 17.2221 51.6918 17.2221C51.1641 17.2221 50.7362 16.7942 50.7362 16.266C50.7362 15.7379 51.1641 15.31 51.6918 15.31C52.2199 15.31 52.6479 15.7379 52.6479 16.266Z" fill="#D6D6D6"/>
<path d="M51.692 34.0883C51.692 34.6164 51.2641 35.0444 50.7359 35.0444C50.2083 35.0444 49.7804 34.6164 49.7804 34.0883C49.7804 33.5602 50.2083 33.1322 50.7359 33.1322C51.2641 33.1322 51.692 33.5602 51.692 34.0883Z" fill="#D6D6D6"/>
<path d="M10.9201 8.43955C10.9201 8.96769 10.4922 9.39563 9.96404 9.39563C9.4364 9.39563 9.00847 8.96769 9.00847 8.43955C9.00847 7.9114 9.4364 7.48347 9.96404 7.48347C10.4922 7.48347 10.9201 7.9114 10.9201 8.43955Z" fill="#D6D6D6"/>
<path d="M24.6173 40.5912C24.6173 41.1193 24.1893 41.5473 23.6612 41.5473C23.1335 41.5473 22.7056 41.1193 22.7056 40.5912C22.7056 40.063 23.1335 39.6351 23.6612 39.6351C24.1893 39.6351 24.6173 40.063 24.6173 40.5912Z" fill="#D6D6D6"/>
<path d="M10.072 59.065C9.90734 59.065 9.75567 59.0173 9.617 58.922C9.47834 58.8267 9.37434 58.6793 9.305 58.48L6.757 50.654C6.731 50.5587 6.718 50.485 6.718 50.433C6.70934 50.2683 6.76134 50.134 6.874 50.03C6.98667 49.9173 7.12534 49.861 7.29 49.861C7.43734 49.861 7.563 49.9043 7.667 49.991C7.771 50.0777 7.84034 50.1903 7.875 50.329L10.059 57.505L12.256 50.355C12.2993 50.2077 12.3817 50.0907 12.503 50.004C12.633 49.9087 12.776 49.861 12.932 49.861C13.088 49.861 13.2267 49.9087 13.348 50.004C13.478 50.0907 13.5647 50.2077 13.608 50.355L15.805 57.505L17.989 50.329C18.0323 50.1903 18.106 50.0777 18.21 49.991C18.314 49.9043 18.4353 49.861 18.574 49.861C18.7473 49.861 18.8903 49.9173 19.003 50.03C19.1157 50.134 19.1633 50.2683 19.146 50.433C19.146 50.485 19.133 50.5587 19.107 50.654L16.559 58.48C16.4897 58.6793 16.3857 58.8267 16.247 58.922C16.1083 59.0173 15.9567 59.065 15.792 59.065C15.6187 59.065 15.4583 59.0087 15.311 58.896C15.1723 58.7833 15.077 58.6447 15.025 58.48L12.932 51.85L10.839 58.48C10.787 58.6447 10.6873 58.7833 10.54 58.896C10.4013 59.0087 10.2453 59.065 10.072 59.065ZM22.9007 59.13C21.8433 59.13 21.0157 58.831 20.4177 58.233C19.8283 57.6263 19.5337 56.777 19.5337 55.685C19.5337 55.0957 19.642 54.541 19.8587 54.021C20.0753 53.4923 20.4133 53.0633 20.8727 52.734C21.332 52.4047 21.9213 52.24 22.6407 52.24C23.308 52.24 23.8713 52.396 24.3307 52.708C24.79 53.0113 25.1367 53.41 25.3707 53.904C25.6133 54.398 25.7347 54.9353 25.7347 55.516C25.7347 55.6807 25.6783 55.8193 25.5657 55.932C25.4617 56.0447 25.3187 56.101 25.1367 56.101H20.7297C20.799 56.6817 21.02 57.1497 21.3927 57.505C21.7653 57.8517 22.3027 58.025 23.0047 58.025C23.3947 58.025 23.724 57.9903 23.9927 57.921C24.2613 57.843 24.517 57.7433 24.7597 57.622C24.829 57.5873 24.907 57.57 24.9937 57.57C25.1323 57.57 25.2537 57.6177 25.3577 57.713C25.4617 57.8083 25.5137 57.9297 25.5137 58.077C25.5137 58.181 25.479 58.2763 25.4097 58.363C25.349 58.441 25.271 58.506 25.1757 58.558C24.8897 58.7227 24.5777 58.8613 24.2397 58.974C23.9103 59.078 23.464 59.13 22.9007 59.13ZM20.7297 55.139H24.5647C24.5387 54.6883 24.4217 54.3243 24.2137 54.047C24.0143 53.7697 23.7717 53.566 23.4857 53.436C23.1997 53.306 22.918 53.241 22.6407 53.241C22.3633 53.241 22.0817 53.306 21.7957 53.436C21.5097 53.566 21.267 53.7697 21.0677 54.047C20.8683 54.3243 20.7557 54.6883 20.7297 55.139ZM28.9899 59.13C28.6173 59.13 28.2663 59.052 27.9369 58.896C27.6163 58.74 27.3563 58.519 27.1569 58.233C26.9663 57.9383 26.8709 57.5873 26.8709 57.18C26.8709 56.5647 27.1136 56.062 27.5989 55.672C28.0929 55.2733 28.8469 55.074 29.8609 55.074H31.4339V54.97C31.4339 54.3893 31.2909 53.9777 31.0049 53.735C30.7189 53.4837 30.2813 53.358 29.6919 53.358C29.3279 53.358 29.0073 53.3927 28.7299 53.462C28.4613 53.5227 28.2056 53.592 27.9629 53.67C27.8936 53.6873 27.8373 53.696 27.7939 53.696C27.6639 53.696 27.5513 53.6483 27.4559 53.553C27.3606 53.4577 27.3129 53.3407 27.3129 53.202C27.3129 52.968 27.4256 52.8033 27.6509 52.708C27.9543 52.578 28.2879 52.4697 28.6519 52.383C29.0246 52.2877 29.4406 52.24 29.8999 52.24C30.5326 52.24 31.0483 52.3657 31.4469 52.617C31.8456 52.8683 32.1403 53.189 32.3309 53.579C32.5216 53.969 32.6169 54.3763 32.6169 54.801V58.48C32.6169 58.6447 32.5563 58.7833 32.4349 58.896C32.3223 59.0087 32.1836 59.065 32.0189 59.065C31.8543 59.065 31.7156 59.0087 31.6029 58.896C31.4903 58.7833 31.4339 58.6447 31.4339 58.48V58.142C31.1999 58.3847 30.8879 58.61 30.4979 58.818C30.1079 59.026 29.6053 59.13 28.9899 59.13ZM29.4319 58.09C29.8393 58.09 30.2206 57.9903 30.5759 57.791C30.9313 57.5917 31.2173 57.3663 31.4339 57.115V56.023H30.0169C29.4103 56.023 28.9293 56.101 28.5739 56.257C28.2273 56.413 28.0539 56.6773 28.0539 57.05C28.0539 57.3273 28.1493 57.57 28.3399 57.778C28.5393 57.986 28.9033 58.09 29.4319 58.09ZM36.7354 59.13C36.5794 59.13 36.3931 59.1127 36.1764 59.078C35.9684 59.052 35.7604 58.987 35.5524 58.883C35.3531 58.7703 35.1841 58.597 35.0454 58.363C34.9067 58.129 34.8374 57.8127 34.8374 57.414V53.384H33.9144C33.7497 53.384 33.6674 53.3017 33.6674 53.137C33.6674 53.0503 33.7064 52.9767 33.7844 52.916L35.5524 51.187C35.5697 51.1697 35.5957 51.148 35.6304 51.122C35.6737 51.0873 35.7214 51.07 35.7734 51.07C35.8427 51.07 35.8991 51.096 35.9424 51.148C35.9944 51.2 36.0204 51.2607 36.0204 51.33V52.37H37.4894C37.6367 52.37 37.7581 52.4177 37.8534 52.513C37.9487 52.6083 37.9964 52.7297 37.9964 52.877C37.9964 53.0157 37.9487 53.137 37.8534 53.241C37.7581 53.3363 37.6367 53.384 37.4894 53.384H36.0204V57.31C36.0204 57.5613 36.0681 57.7433 36.1634 57.856C36.2587 57.9687 36.3714 58.038 36.5014 58.064C36.6401 58.0813 36.7614 58.09 36.8654 58.09C37.0734 58.09 37.2251 58.0727 37.3204 58.038C37.4244 57.9947 37.5327 57.973 37.6454 57.973C37.7667 57.973 37.8751 58.0163 37.9704 58.103C38.0657 58.1897 38.1134 58.3023 38.1134 58.441C38.1134 58.6403 38.0137 58.792 37.8144 58.896C37.6584 58.9653 37.4894 59.0217 37.3074 59.065C37.1341 59.1083 36.9434 59.13 36.7354 59.13ZM39.9963 59.065C39.8316 59.065 39.6929 59.0087 39.5803 58.896C39.4676 58.7833 39.4113 58.6447 39.4113 58.48V50.043C39.4113 49.8697 39.4676 49.7267 39.5803 49.614C39.6929 49.5013 39.8316 49.445 39.9963 49.445C40.1609 49.445 40.2996 49.5013 40.4123 49.614C40.5336 49.7267 40.5943 49.8697 40.5943 50.043V53.436C40.8716 53.1327 41.1966 52.8597 41.5693 52.617C41.9506 52.3657 42.4316 52.24 43.0123 52.24C43.5063 52.24 43.9266 52.357 44.2733 52.591C44.6199 52.8163 44.8843 53.124 45.0663 53.514C45.2483 53.8953 45.3393 54.32 45.3393 54.788V58.48C45.3393 58.6447 45.2786 58.7833 45.1573 58.896C45.0446 59.0087 44.9059 59.065 44.7413 59.065C44.5766 59.065 44.4379 59.0087 44.3253 58.896C44.2126 58.7833 44.1563 58.6447 44.1563 58.48V54.918C44.1563 54.424 44.0436 54.0383 43.8183 53.761C43.6016 53.475 43.2376 53.332 42.7263 53.332C42.2583 53.332 41.8509 53.4577 41.5043 53.709C41.1576 53.9603 40.8543 54.2507 40.5943 54.58V58.48C40.5943 58.6447 40.5336 58.7833 40.4123 58.896C40.2996 59.0087 40.1609 59.065 39.9963 59.065ZM50.2972 59.13C49.2398 59.13 48.4122 58.831 47.8142 58.233C47.2248 57.6263 46.9302 56.777 46.9302 55.685C46.9302 55.0957 47.0385 54.541 47.2552 54.021C47.4718 53.4923 47.8098 53.0633 48.2692 52.734C48.7285 52.4047 49.3178 52.24 50.0372 52.24C50.7045 52.24 51.2678 52.396 51.7272 52.708C52.1865 53.0113 52.5332 53.41 52.7672 53.904C53.0098 54.398 53.1312 54.9353 53.1312 55.516C53.1312 55.6807 53.0748 55.8193 52.9622 55.932C52.8582 56.0447 52.7152 56.101 52.5332 56.101H48.1262C48.1955 56.6817 48.4165 57.1497 48.7892 57.505C49.1618 57.8517 49.6992 58.025 50.4012 58.025C50.7912 58.025 51.1205 57.9903 51.3892 57.921C51.6578 57.843 51.9135 57.7433 52.1562 57.622C52.2255 57.5873 52.3035 57.57 52.3902 57.57C52.5288 57.57 52.6502 57.6177 52.7542 57.713C52.8582 57.8083 52.9102 57.9297 52.9102 58.077C52.9102 58.181 52.8755 58.2763 52.8062 58.363C52.7455 58.441 52.6675 58.506 52.5722 58.558C52.2862 58.7227 51.9742 58.8613 51.6362 58.974C51.3068 59.078 50.8605 59.13 50.2972 59.13ZM48.1262 55.139H51.9612C51.9352 54.6883 51.8182 54.3243 51.6102 54.047C51.4108 53.7697 51.1682 53.566 50.8822 53.436C50.5962 53.306 50.3145 53.241 50.0372 53.241C49.7598 53.241 49.4782 53.306 49.1922 53.436C48.9062 53.566 48.6635 53.7697 48.4642 54.047C48.2648 54.3243 48.1522 54.6883 48.1262 55.139ZM55.2814 59.065C55.1168 59.065 54.9781 59.0087 54.8654 58.896C54.7528 58.7833 54.6964 58.6447 54.6964 58.48V52.903C54.6964 52.7383 54.7528 52.5997 54.8654 52.487C54.9781 52.3657 55.1168 52.305 55.2814 52.305C55.4461 52.305 55.5848 52.3657 55.6974 52.487C55.8188 52.5997 55.8794 52.7383 55.8794 52.903V53.462C56.1134 53.15 56.3994 52.8683 56.7374 52.617C57.0754 52.3657 57.4698 52.24 57.9204 52.24H57.9854C58.1501 52.24 58.2844 52.2963 58.3884 52.409C58.5011 52.5217 58.5574 52.6603 58.5574 52.825C58.5574 52.9897 58.5011 53.124 58.3884 53.228C58.2758 53.332 58.1328 53.384 57.9594 53.384H57.8944C57.4698 53.384 57.0841 53.4923 56.7374 53.709C56.3908 53.917 56.1048 54.19 55.8794 54.528V58.48C55.8794 58.6447 55.8188 58.7833 55.6974 58.896C55.5848 59.0087 55.4461 59.065 55.2814 59.065Z" fill="#D6D6D6"/>
</svg>
